<svg xmlns:xlink="http://www.w3.org/1999/xlink" xmlns="http://www.w3.org/2000/svg" width="73" height="41" viewBox="0 0 73 41" fill="none">
  <path d="M9.12058 34.8259C11.1642 33.5655 13.5211 32.7192 15.7598 31.8688C16.7394 31.4968 17.5724 30.4152 17.8669 29.4312C18.0463 28.832 18.097 27.4066 17.1446 27.3844C14.1152 27.3142 11.2211 28.2618 8.61362 29.7956C8.6304 29.7572 8.64629 29.7185 8.66307 29.6801C8.87765 29.191 9.10362 28.7069 9.34011 28.228C9.73465 27.429 10.1667 26.6527 10.6096 25.8797C10.6306 25.8431 10.7368 25.6677 10.7786 25.597C10.843 25.4962 10.9073 25.3952 10.9725 25.2949C11.2646 24.8461 11.5662 24.4037 11.8774 23.9681C12.3614 23.2909 12.8691 22.6299 13.3982 21.9873C13.519 21.8406 13.6418 21.6948 13.7654 21.55C13.8253 21.4834 13.9531 21.3396 13.9764 21.3145C14.3424 20.922 14.7062 20.5288 15.0842 20.1474C16.417 18.8024 17.5139 17.8517 18.9283 16.8262C24.6891 12.6494 31.6669 10.5835 38.774 10.6055C41.6543 10.6143 44.5898 11.0244 47.3878 11.7906C47.0496 12.6733 46.785 13.5866 46.6138 14.5281C46.2377 16.5963 46.4085 19.0248 47.6853 20.7747C48.865 22.3916 50.7232 23.4255 52.7472 23.3479C57.6421 23.1603 60.4349 17.0919 59.0132 12.8603C58.1807 10.3821 56.1156 8.7997 53.7497 7.73334C55.7136 5.95269 58.3665 4.75647 61.1126 4.25257C64.3269 3.66254 67.6326 3.8546 70.602 5.31714C71.743 5.87909 73.5868 3.50467 72.4863 2.76258C66.555 -1.23713 58.6635 -0.218102 53.182 4.0983C52.2307 4.84735 51.3481 5.68677 50.5514 6.59874C49.7822 6.38321 49.0231 6.20167 48.3032 6.04339C39.7379 4.16219 30.3451 5.38967 22.58 9.48127C15.0867 13.4298 8.59166 19.9196 4.79788 27.6203C4.78307 27.2807 4.76847 26.9416 4.75572 26.6022C4.63196 23.348 4.56171 20.1296 3.95748 16.9243C3.8241 16.2164 3.14033 16.2092 2.61059 16.4864C1.91342 16.8511 1.44201 17.6047 1.32293 18.3693C0.788535 21.8035 0.666873 25.2251 0.54515 28.695C0.42637 32.0796 0.196664 35.4733 0.158212 38.8578C0.147868 39.7668 0.423534 40.6498 1.48938 40.6848C2.62132 40.7223 3.59583 39.8097 4.24991 38.9861C4.85125 38.2292 5.58605 37.45 6.54177 36.6404C7.11649 36.1538 8.27395 35.348 9.12058 34.8259ZM55.0516 18.1357C55.1569 18.1897 55.043 18.2036 54.9745 18.1978C55.1056 17.9926 55.1985 18.2109 55.0516 18.1357ZM50.7382 14.8398C50.6292 14.2117 50.6437 13.5718 50.7451 12.9442C51.8575 13.4476 52.9114 14.1059 53.7164 15.0101C54.1615 15.5099 54.5345 16.1289 54.719 16.7717C54.7976 17.0452 54.858 17.3665 54.8678 17.6399C54.8785 17.94 54.8687 18.0554 54.8412 18.1862C54.321 18.2623 53.7909 18.2261 53.2399 18.0076C51.9061 17.4782 50.9794 16.2283 50.7382 14.8398Z" fill="#231F20"></path>
</svg>

