<svg xmlns:xlink="http://www.w3.org/1999/xlink" xmlns="http://www.w3.org/2000/svg" width="73" height="41" viewBox="0 0 73 41" fill="none">
  <path d="M63.8638 34.8259C61.8202 33.5655 59.4633 32.7192 57.2246 31.8688C56.245 31.4968 55.412 30.4152 55.1175 29.4312C54.9381 28.832 54.8873 27.4066 55.8397 27.3844C58.8692 27.3142 61.7633 28.2618 64.3708 29.7956C64.354 29.7572 64.3381 29.7185 64.3213 29.6801C64.1067 29.191 63.8807 28.7069 63.6443 28.228C63.2497 27.429 62.8177 26.6527 62.3748 25.8797C62.3537 25.8431 62.2476 25.6677 62.2058 25.597C62.1414 25.4962 62.0771 25.3952 62.0119 25.2949C61.7197 24.8461 61.4182 24.4037 61.107 23.9681C60.623 23.2909 60.1153 22.6299 59.5862 21.9873C59.4654 21.8406 59.3426 21.6948 59.219 21.55C59.1591 21.4834 59.0313 21.3396 59.008 21.3145C58.642 20.922 58.2782 20.5288 57.9002 20.1474C56.5673 18.8024 55.4705 17.8517 54.056 16.8262C48.2953 12.6494 41.3175 10.5835 34.2104 10.6055C31.3301 10.6143 28.3946 11.0244 25.5965 11.7906C25.9348 12.6733 26.1993 13.5866 26.3706 14.5281C26.7467 16.5963 26.5759 19.0248 25.2991 20.7747C24.1194 22.3916 22.2611 23.4255 20.2372 23.3479C15.3423 23.1603 12.5494 17.0919 13.9712 12.8603C14.8037 10.3821 16.8688 8.7997 19.2347 7.73334C17.2708 5.95269 14.6179 4.75647 11.8717 4.25257C8.65745 3.66255 5.35174 3.85459 2.38241 5.31714C1.24133 5.87909 -0.602438 3.50467 0.498106 2.76258C6.42935 -1.23713 14.3209 -0.218101 19.8024 4.0983C20.7536 4.84735 21.6363 5.68677 22.433 6.59874C23.2022 6.38321 23.9613 6.20167 24.6812 6.04339C33.2464 4.16219 42.6393 5.38967 50.4043 9.48128C57.8977 13.4298 64.3927 19.9196 68.1865 27.6203C68.2013 27.2807 68.2159 26.9416 68.2287 26.6022C68.3524 23.348 68.4227 20.1296 69.0269 16.9243C69.1603 16.2164 69.844 16.2092 70.3738 16.4864C71.071 16.8511 71.5424 17.6047 71.6614 18.3693C72.1958 21.8035 72.3175 25.2251 72.4392 28.695C72.558 32.0796 72.7877 35.4733 72.8262 38.8578C72.8365 39.7668 72.5608 40.6498 71.495 40.6848C70.3631 40.7223 69.3885 39.8097 68.7345 38.9861C68.1331 38.2292 67.3983 37.45 66.4426 36.6404C65.8679 36.1538 64.7104 35.348 63.8638 34.8259ZM17.9328 18.1357C17.8274 18.1897 17.9414 18.2036 18.0099 18.1978C17.8788 17.9926 17.7858 18.2109 17.9328 18.1357ZM22.2462 14.8398C22.3552 14.2117 22.3406 13.5718 22.2392 12.9442C21.1268 13.4476 20.0729 14.1059 19.2679 15.0101C18.8229 15.5099 18.4499 16.1289 18.2654 16.7717C18.1868 17.0452 18.1263 17.3665 18.1166 17.6399C18.1059 17.94 18.1157 18.0554 18.1432 18.1862C18.6634 18.2623 19.1935 18.2261 19.7445 18.0076C21.0783 17.4782 22.0049 16.2283 22.2462 14.8398Z" fill="#231F20"></path>
</svg>

